# xmcd
#
# Track frame offsets:
#	150
#	17457
#	30535
#	46497
#	65060
#	80432
#	94830
#	109445
#	124330
#	136235
#	151715
#	166995
#	182100
#	198720
#	215032
#
# Disc length: 3072 seconds
#
# Revision: 2
# Processed by: cddbd v1.5.2PL0 Copyright (c) Steve Scherf et al.
# Submitted via: EasyCDDAExtractor 16.0.6.1
#
DISCID=d40bfe0f
DTITLE=Zeca Pagodinho - Quintal do Pagodinho
DYEAR=2001
DGENRE=Pagode
TTITLE0=Otacilio da Mangueira - Tá na Hora
TTITLE1=Bidubi - Malandro Serrote
TTITLE2=Alamir - Menino do Bambuzal
TTITLE3=Jorge Macarrão - Mordomia com Tereza
TTITLE4=Dunga - Samba Elegante
TTITLE5=Barbeirinho do Jacarezinho - Dezoito Quilates e Cinquenta que Mordem
TTITLE6=Luiz Grande - Gargalhada da Macaca
TTITLE7=Efson - Carreiro Sanfoneiro
TTITLE8=Rixxah - Chibatas do Destino
TTITLE9=Zé Roberto - O Cunhado
TTITLE10=Carlos Roberto da Mangueira - Lamento do Morro
TTITLE11=Maurição - Partido da Feira
TTITLE12=Luizinho Toblow - Tempero da Vizinha
TTITLE13=Wilson das Neves - Essa é Pra Quem Bebe
TTITLE14=Leandro Di Menor - Alô Meu Povo Brasileiro
EXTD=
EXTT0=
EXTT1=
EXTT2=
EXTT3=
EXTT4=
EXTT5=
EXTT6=
EXTT7=
EXTT8=
EXTT9=
EXTT10=
EXTT11=
EXTT12=
EXTT13=
EXTT14=
PLAYORDER=
